<?xml version="1.0" encoding="utf-8"?>
<!-- Generator: Adobe Illustrator 23.0.1, SVG Export Plug-In . SVG Version: 6.00 Build 0)  -->
<svg version="1.1" id="Layer_1" xmlns="http://www.w3.org/2000/svg" xmlns:xlink="http://www.w3.org/1999/xlink" x="0px" y="0px"
	 viewBox="0 0 721.83 447.13" style="enable-background:new 0 0 721.83 447.13;" xml:space="preserve">
<style type="text/css">
	.st0{fill:url(#SVGID_1_);stroke:#000000;stroke-miterlimit:10;}
	.st1{fill:url(#SVGID_2_);}
	.st2{fill:url(#SVGID_3_);stroke:url(#SVGID_4_);stroke-miterlimit:10;}
	.st3{fill:none;stroke:#39B54A;stroke-miterlimit:10;}
	.st4{fill:url(#SVGID_5_);}
	.st5{fill:#FFFFFF;}
	.st6{opacity:0.75;fill:#FDC70C;}
	.st7{fill:none;stroke:url(#SVGID_6_);stroke-miterlimit:10;}
	.st8{opacity:0.95;fill:#FDC70C;}
	.st9{fill:none;stroke:#58595B;stroke-width:0.25;stroke-miterlimit:10;}
	.st10{opacity:0.95;fill:#DE6B26;}
	.st11{fill:none;stroke:url(#SVGID_7_);stroke-miterlimit:10;}
</style>
<linearGradient id="SVGID_1_" gradientUnits="userSpaceOnUse" x1="0" y1="223.5662" x2="722.7566" y2="223.5662">
	<stop  offset="0" style="stop-color:#FFFFFF"/>
	<stop  offset="1.898852e-03" style="stop-color:#4D3222"/>
	<stop  offset="1" style="stop-color:#272728"/>
</linearGradient>
<rect class="st0" width="722.76" height="447.13"/>
<linearGradient id="SVGID_2_" gradientUnits="userSpaceOnUse" x1="382.9138" y1="194.6965" x2="691.8303" y2="194.6965">
	<stop  offset="5.618000e-03" style="stop-color:#8AD0C3"/>
	<stop  offset="0.5" style="stop-color:#00B6A9"/>
	<stop  offset="1" style="stop-color:#00A185"/>
</linearGradient>
<linearGradient id="SVGID_3_" gradientUnits="userSpaceOnUse" x1="382.4138" y1="194.6965" x2="692.3303" y2="194.6965">
	<stop  offset="0" style="stop-color:#D1E4A5"/>
	<stop  offset="0.5" style="stop-color:#ACD479"/>
	<stop  offset="1" style="stop-color:#76B83F"/>
</linearGradient>
<path style="fill:url(#SVGID_2_);stroke:url(#SVGID_3_);stroke-miterlimit:10;" d="M428.49,32.94
	c-11.15,5.41-14.31,10.98-15.05,15.17c-0.94,5.28,2.01,8.09,0,12.06c-2.71,5.35-9.22,2.52-16.18,8.56
	c-2.16,1.87-4.45,6.31-9.03,15.17c-3.96,7.66-4.6,10.22-4.89,11.67c-0.55,2.68-0.54,4.46,0,13.22c0.94,15.35,1.26,15.66,1.13,19.84
	c-0.32,10.09-2.24,9.88-1.13,14c1.74,6.49,6.3,6.33,15.06,16.72c5.48,6.51,4.78,7.86,9.41,12.06c2.18,1.97,6.97,6.33,13.93,8.17
	c2.81,0.74,5.59,0.98,21.83-1.94c6.84-1.23,10.98-2.11,19.2-3.5c12.88-2.19,17.52-2.55,21.08,0.39c2.74,2.26,2.15,4.26,5.27,6.22
	c5.42,3.41,10.18-0.73,12.8,1.94c2.95,3.01-2.34,9.05-1.13,20.61c0.21,2.05,0.7,6.35,3.01,10.89c4.37,8.59,9.95,7.58,14.68,14.78
	c5.3,8.06,4.1,18.15,3.39,24.12c-0.79,6.6-2.86,12.11-4.89,17.5c-3.9,10.36-5.72,10.41-5.65,14.39c0.17,8.42,8.34,8.98,12.42,20.61
	c2.59,7.39-0.26,8.44,3.01,20.61c1.37,5.09,2.43,9.04,5.27,13.61c4.21,6.78,7.13,6.58,8.66,11.67c1.79,5.98-1.58,8.45,0.75,14
	c0.23,0.55,2.64,6.08,7.53,7.39c4.01,1.07,6.43-1.57,13.55-4.28c6.91-2.63,7.29-1.15,15.06-3.5c6.93-2.1,13.53-4.1,19.2-9.72
	c7.21-7.17,9.56-16.89,9.79-17.89c1.47-6.41,0.43-10.19,3.76-14c3.2-3.66,6.05-2.34,7.9-5.45c3.07-5.14-3.67-10.6-1.88-18.28
	c0.54-2.33,1.68-4.06,12.04-12.84c14.34-12.14,15.01-11.24,16.18-14c2.19-5.16-0.52-7.44-4.89-30.34
	c-1.95-10.22-2.11-13.43-1.51-17.11c1.17-7.12,4.57-12.28,8.28-17.11c13.42-17.49,21.69-18.81,33.5-33.84
	c7.38-9.39,14.04-21.46,11.29-24.5c-2.71-2.99-12.92,4.55-27.48,2.72c-2.45-0.31-5.7-0.97-8.28-3.5c-2.73-2.69-2.73-5.54-4.14-9.33
	c-1.83-4.91-3.67-5.06-11.29-14c-6.52-7.65-9.77-11.48-11.67-16.34c-2.78-7.14-0.54-8.59-3.39-15.56
	c-2.39-5.84-4.18-5.34-10.91-14.78c-6.74-9.45-10.11-14.17-10.91-21c-0.62-5.29,0.63-8.31-1.51-10.11
	c-2.34-1.98-5.43,0.31-13.17,1.56c-5.41,0.87-11.73,1.89-18.07-0.39c-6.94-2.5-7.91-6.81-13.17-6.61c-2.27,0.08-4.52,1.7-9.03,4.67
	c-4.99,3.28-5.96,4.97-9.03,5.45c-0.71,0.11-2.94,0.37-7.53-1.56c-6.17-2.59-6.78-5.79-12.04-8.17c-9.64-4.35-14.65-3.17-16.18-7
	c-0.73-1.82,0.25-2.46,0.75-10.11c0.29-4.39,0.43-6.59,0-7.39c-2.59-4.81-17-1.25-37.26,3.5c-7.44,1.74-17.87,4.16-30.49,7"/>
<g>
	<path class="st5" d="M533.26,148.19h-4.6c-0.45,1.02-0.77,1.82-0.95,2.4c-0.18,0.58-0.27,1.08-0.27,1.49l-0.01,0.14
		c-0.13,0.02-0.22,0.03-0.28,0.03c-0.06,0-0.12,0-0.17,0c-0.37,0-0.65-0.08-0.84-0.23c-0.19-0.16-0.29-0.38-0.29-0.68
		s0.55-1.59,1.65-3.88s2.06-4.41,2.88-6.37c-0.09-0.13-0.19-0.26-0.29-0.39s-0.22-0.25-0.34-0.38c0.21-0.27,0.4-0.47,0.57-0.59
		s0.35-0.18,0.52-0.18c0.24,0,0.48,0.16,0.71,0.49c0.23,0.32,0.5,0.88,0.8,1.66c0.27,0.67,0.63,1.61,1.1,2.82
		c1.58,4.1,2.67,6.45,3.29,7.06c-0.22,0.25-0.41,0.42-0.6,0.53s-0.37,0.16-0.57,0.16c-0.57,0-1.22-1.01-1.95-3.02
		C533.48,148.79,533.35,148.44,533.26,148.19z M531.06,142.52l-0.41,0.98c-0.65,1.58-1.13,2.74-1.44,3.48h3.58
		c-0.29-0.8-0.58-1.57-0.87-2.32C531.64,143.93,531.35,143.21,531.06,142.52z"/>
	<path class="st5" d="M545.22,144.74c0.05,0.11,0.09,0.21,0.12,0.32c0.03,0.11,0.04,0.21,0.04,0.31c0,0.36-0.1,0.62-0.3,0.76
		s-0.57,0.22-1.11,0.22c-0.05,0-0.17,0-0.36,0c-0.67-0.01-1.29-0.02-1.85-0.02c-0.1,0-0.26,0-0.48,0.01
		c-0.23,0.01-0.4,0.01-0.53,0.01c0,1.58,0.04,2.79,0.13,3.63c0.09,0.84,0.23,1.44,0.42,1.82c-0.27,0.15-0.53,0.26-0.76,0.33
		s-0.45,0.11-0.64,0.11c-0.31,0-0.52-0.08-0.63-0.24c-0.12-0.16-0.17-0.47-0.17-0.93c0-0.19,0.03-1.22,0.1-3.09
		c0.06-1.88,0.1-3.66,0.1-5.35c0-0.65-0.02-1.22-0.07-1.71c-0.05-0.49-0.12-0.93-0.23-1.32c0.29,0.01,0.56,0.02,0.81,0.03
		c0.25,0.01,0.48,0.01,0.68,0.01c0.66,0,1.45-0.03,2.38-0.1s1.54-0.1,1.82-0.1c0.44,0,0.74,0.05,0.92,0.16
		c0.17,0.11,0.26,0.29,0.26,0.54c0,0.18-0.03,0.36-0.09,0.56s-0.15,0.42-0.28,0.66c-0.24-0.15-0.59-0.25-1.05-0.33
		c-0.45-0.07-1.01-0.11-1.68-0.11c-0.24,0-0.52,0-0.85,0.01c-0.33,0.01-0.7,0.02-1.11,0.04l-0.01,1.24c0,0.2,0,0.67-0.02,1.42
		c-0.01,0.55-0.01,1-0.02,1.34c0.08,0.01,0.17,0.02,0.26,0.02c0.09,0,0.21,0,0.37,0c1.17,0,2.01-0.02,2.53-0.06
		S544.89,144.83,545.22,144.74z"/>
	<path class="st5" d="M553.4,146.97c0.41,0.15,0.93,0.58,1.54,1.29c0.16,0.19,0.29,0.34,0.37,0.44c0.64,0.72,1.2,1.28,1.68,1.68
		c0.48,0.4,0.88,0.65,1.22,0.74c-0.16,0.46-0.34,0.78-0.52,0.98c-0.18,0.2-0.4,0.29-0.65,0.29c-0.21,0-0.44-0.09-0.69-0.27
		c-0.25-0.18-0.55-0.48-0.89-0.9c-0.25-0.3-0.6-0.73-1.04-1.27c-1.34-1.68-2.4-2.51-3.2-2.51c-0.09,0-0.2,0-0.33,0.01
		c-0.13,0.01-0.29,0.03-0.48,0.05c0.03,1.31,0.09,2.26,0.17,2.87c0.08,0.61,0.2,1.08,0.37,1.41c-0.27,0.15-0.52,0.27-0.75,0.34
		s-0.44,0.11-0.63,0.11c-0.31,0-0.52-0.08-0.64-0.25s-0.17-0.5-0.17-1.01c0-0.18,0.03-0.95,0.08-2.31c0.05-1.37,0.08-2.65,0.08-3.85
		c0-1.55-0.04-2.69-0.12-3.44c-0.08-0.74-0.21-1.31-0.38-1.71c0.73-0.02,1.5-0.06,2.3-0.11c0.8-0.05,1.24-0.07,1.33-0.07
		c1.28,0,2.28,0.31,3.01,0.94c0.73,0.63,1.1,1.48,1.1,2.55c0,0.94-0.23,1.75-0.7,2.42C554.99,146.08,554.3,146.6,553.4,146.97z
		 M550.54,140.97c-0.04,0.98-0.08,1.92-0.1,2.81s-0.03,1.76-0.03,2.6c0.04,0,0.11,0,0.2,0.01s0.15,0.01,0.2,0.01
		c1.16,0,2.06-0.28,2.71-0.84c0.65-0.56,0.98-1.34,0.98-2.34c0-0.76-0.24-1.35-0.72-1.77s-1.16-0.62-2.03-0.62
		c-0.19,0-0.39,0.01-0.59,0.04S550.75,140.93,550.54,140.97z"/>
	<path class="st5" d="M562.75,151.79c-0.27,0.15-0.52,0.26-0.76,0.33c-0.24,0.08-0.48,0.11-0.7,0.11c-0.3,0-0.51-0.09-0.62-0.26
		c-0.11-0.17-0.17-0.5-0.17-1c0-0.25,0.03-1.05,0.08-2.39c0.05-1.34,0.08-2.56,0.08-3.66c0-1.41-0.04-2.5-0.12-3.26
		c-0.08-0.77-0.21-1.32-0.4-1.66c0.29-0.16,0.55-0.28,0.79-0.35s0.46-0.11,0.66-0.11c0.29,0,0.5,0.09,0.62,0.26s0.18,0.49,0.18,0.94
		c0,0.07-0.03,0.8-0.09,2.18c-0.06,1.39-0.09,2.74-0.09,4.06c0,1.34,0.04,2.38,0.13,3.12S562.55,151.42,562.75,151.79z"/>
	<path class="st5" d="M574.36,141.32c-0.31-0.15-0.65-0.25-1-0.33c-0.36-0.07-0.74-0.11-1.16-0.11c-1.62,0-2.92,0.46-3.91,1.37
		s-1.49,2.1-1.49,3.58c0,1.46,0.47,2.66,1.4,3.59s2.13,1.41,3.6,1.41c0.45,0,0.89-0.06,1.3-0.17s0.82-0.28,1.23-0.52
		c0.17,0.23,0.29,0.43,0.37,0.6c0.08,0.17,0.12,0.33,0.12,0.48c0,0.36-0.25,0.65-0.75,0.85c-0.5,0.2-1.19,0.3-2.08,0.3
		c-0.96,0-1.84-0.13-2.65-0.4c-0.81-0.27-1.51-0.66-2.11-1.18c-0.72-0.62-1.26-1.33-1.62-2.13c-0.36-0.8-0.54-1.69-0.54-2.66
		c0-1.03,0.22-1.97,0.66-2.83s1.1-1.63,1.97-2.3c0.65-0.5,1.41-0.88,2.29-1.16c0.88-0.27,1.81-0.41,2.78-0.41
		c0.75,0,1.27,0.06,1.58,0.19c0.3,0.13,0.46,0.35,0.46,0.67c0,0.13-0.04,0.29-0.11,0.48C574.62,140.85,574.51,141.06,574.36,141.32z
		"/>
	<path class="st5" d="M584.31,148.19h-4.6c-0.45,1.02-0.77,1.82-0.95,2.4c-0.18,0.58-0.27,1.08-0.27,1.49l-0.01,0.14
		c-0.13,0.02-0.22,0.03-0.28,0.03c-0.06,0-0.12,0-0.17,0c-0.37,0-0.65-0.08-0.84-0.23c-0.19-0.16-0.29-0.38-0.29-0.68
		s0.55-1.59,1.65-3.88s2.06-4.41,2.88-6.37c-0.09-0.13-0.19-0.26-0.29-0.39s-0.22-0.25-0.34-0.38c0.21-0.27,0.4-0.47,0.57-0.59
		s0.35-0.18,0.52-0.18c0.24,0,0.48,0.16,0.71,0.49c0.23,0.32,0.5,0.88,0.8,1.66c0.27,0.67,0.63,1.61,1.1,2.82
		c1.58,4.1,2.67,6.45,3.29,7.06c-0.22,0.25-0.41,0.42-0.6,0.53s-0.37,0.16-0.57,0.16c-0.57,0-1.22-1.01-1.95-3.02
		C584.53,148.79,584.4,148.44,584.31,148.19z M582.12,142.52l-0.41,0.98c-0.65,1.58-1.13,2.74-1.44,3.48h3.58
		c-0.29-0.8-0.58-1.57-0.87-2.32C582.7,143.93,582.41,143.21,582.12,142.52z"/>
</g>
<g>
	<path class="st5" d="M366.4,403.4l-0.84,2.54h-1.08l2.75-8.08h1.26l2.76,8.08h-1.12l-0.86-2.54H366.4z M369.05,402.58l-0.79-2.33
		c-0.18-0.53-0.3-1.01-0.42-1.48h-0.02c-0.12,0.48-0.25,0.97-0.41,1.46l-0.79,2.34H369.05z"/>
	<path class="st5" d="M372.37,405.94v-5h-0.82v-0.8h0.82v-0.28c0-0.82,0.18-1.56,0.67-2.03c0.4-0.38,0.92-0.54,1.42-0.54
		c0.37,0,0.7,0.08,0.9,0.17l-0.14,0.82c-0.16-0.07-0.37-0.13-0.67-0.13c-0.9,0-1.13,0.79-1.13,1.68v0.31h1.4v0.8h-1.4v5H372.37z"/>
	<path class="st5" d="M375.7,401.95c0-0.68-0.01-1.27-0.05-1.81h0.92l0.04,1.14h0.05c0.26-0.78,0.9-1.27,1.61-1.27
		c0.12,0,0.2,0.01,0.3,0.04v1c-0.11-0.02-0.22-0.04-0.36-0.04c-0.74,0-1.27,0.56-1.42,1.36c-0.02,0.14-0.05,0.31-0.05,0.49v3.09
		h-1.04V401.95z"/>
	<path class="st5" d="M380.79,398.51c0.01,0.36-0.25,0.65-0.67,0.65c-0.37,0-0.64-0.29-0.64-0.65c0-0.37,0.28-0.66,0.66-0.66
		C380.54,397.85,380.79,398.13,380.79,398.51z M379.61,405.94v-5.8h1.05v5.8H379.61z"/>
	<path class="st5" d="M386.5,405.73c-0.28,0.14-0.89,0.34-1.67,0.34c-1.75,0-2.89-1.19-2.89-2.96c0-1.79,1.22-3.08,3.12-3.08
		c0.62,0,1.17,0.16,1.46,0.3l-0.24,0.82c-0.25-0.14-0.65-0.28-1.22-0.28c-1.33,0-2.05,0.98-2.05,2.19c0,1.34,0.86,2.17,2.01,2.17
		c0.6,0,1-0.16,1.29-0.29L386.5,405.73z"/>
	<path class="st5" d="M390.89,405.94l-0.08-0.73h-0.04c-0.32,0.46-0.95,0.86-1.78,0.86c-1.17,0-1.77-0.83-1.77-1.67
		c0-1.4,1.25-2.17,3.49-2.16v-0.12c0-0.48-0.13-1.34-1.32-1.34c-0.54,0-1.1,0.17-1.51,0.43l-0.24-0.7c0.48-0.31,1.17-0.52,1.91-0.52
		c1.78,0,2.21,1.21,2.21,2.37v2.17c0,0.5,0.02,1,0.1,1.39H390.89z M390.74,402.98c-1.15-0.02-2.46,0.18-2.46,1.31
		c0,0.68,0.46,1.01,1,1.01c0.76,0,1.24-0.48,1.4-0.97c0.04-0.11,0.06-0.23,0.06-0.34V402.98z"/>
	<path class="st5" d="M399.54,398.51c0.01,0.36-0.25,0.65-0.67,0.65c-0.37,0-0.64-0.29-0.64-0.65c0-0.37,0.28-0.66,0.66-0.66
		C399.29,397.85,399.54,398.13,399.54,398.51z M398.37,405.94v-5.8h1.05v5.8H398.37z"/>
	<path class="st5" d="M400.97,404.86c0.31,0.2,0.86,0.42,1.39,0.42c0.77,0,1.13-0.38,1.13-0.86c0-0.5-0.3-0.78-1.08-1.07
		c-1.04-0.37-1.54-0.95-1.54-1.64c0-0.94,0.76-1.7,2-1.7c0.59,0,1.1,0.17,1.43,0.36l-0.26,0.77c-0.23-0.14-0.65-0.34-1.19-0.34
		c-0.62,0-0.97,0.36-0.97,0.79c0,0.48,0.35,0.7,1.1,0.98c1.01,0.38,1.52,0.89,1.52,1.75c0,1.02-0.79,1.74-2.17,1.74
		c-0.64,0-1.22-0.16-1.63-0.4L400.97,404.86z"/>
	<path class="st5" d="M408.29,402.03c0-0.74-0.02-1.34-0.05-1.89h0.95l0.05,1h0.02c0.43-0.71,1.12-1.13,2.06-1.13
		c1.4,0,2.46,1.19,2.46,2.95c0,2.09-1.27,3.12-2.64,3.12c-0.77,0-1.44-0.34-1.79-0.91h-0.02v3.15h-1.04V402.03z M409.34,403.58
		c0,0.16,0.02,0.3,0.05,0.43c0.19,0.73,0.83,1.24,1.58,1.24c1.12,0,1.76-0.91,1.76-2.24c0-1.16-0.61-2.16-1.73-2.16
		c-0.72,0-1.39,0.52-1.59,1.31c-0.04,0.13-0.07,0.29-0.07,0.43V403.58z"/>
	<path class="st5" d="M420.31,402.99c0,2.15-1.49,3.08-2.89,3.08c-1.57,0-2.78-1.15-2.78-2.99c0-1.94,1.27-3.08,2.88-3.08
		C419.19,400,420.31,401.22,420.31,402.99z M415.71,403.05c0,1.27,0.73,2.23,1.76,2.23c1.01,0,1.76-0.95,1.76-2.25
		c0-0.98-0.49-2.23-1.74-2.23C416.25,400.8,415.71,401.95,415.71,403.05z"/>
	<path class="st5" d="M426.84,402.99c0,2.15-1.49,3.08-2.89,3.08c-1.57,0-2.78-1.15-2.78-2.99c0-1.94,1.27-3.08,2.88-3.08
		C425.71,400,426.84,401.22,426.84,402.99z M422.24,403.05c0,1.27,0.73,2.23,1.76,2.23c1.01,0,1.76-0.95,1.76-2.25
		c0-0.98-0.49-2.23-1.74-2.23C422.78,400.8,422.24,401.95,422.24,403.05z"/>
	<path class="st5" d="M428.12,401.95c0-0.68-0.01-1.27-0.05-1.81h0.92l0.04,1.14h0.05c0.26-0.78,0.9-1.27,1.61-1.27
		c0.12,0,0.2,0.01,0.3,0.04v1c-0.11-0.02-0.22-0.04-0.36-0.04c-0.74,0-1.27,0.56-1.42,1.36c-0.02,0.14-0.05,0.31-0.05,0.49v3.09
		h-1.04V401.95z"/>
	<path class="st5" d="M432.03,397.43h1.05v8.52h-1.05V397.43z"/>
	<path class="st5" d="M435.18,400.14l1.27,3.43c0.13,0.38,0.28,0.84,0.37,1.19h0.02c0.11-0.35,0.23-0.79,0.37-1.21l1.15-3.41h1.12
		l-1.58,4.14c-0.75,1.99-1.27,3.01-1.99,3.63c-0.52,0.46-1.03,0.64-1.3,0.68l-0.26-0.89c0.26-0.08,0.61-0.25,0.92-0.52
		c0.29-0.23,0.65-0.64,0.89-1.17c0.05-0.11,0.08-0.19,0.08-0.25c0-0.06-0.02-0.14-0.07-0.28l-2.15-5.35H435.18z"/>
	<path class="st5" d="M442.88,402.03c0-0.74-0.02-1.34-0.05-1.89h0.95l0.05,1h0.02c0.43-0.71,1.12-1.13,2.06-1.13
		c1.4,0,2.46,1.19,2.46,2.95c0,2.09-1.27,3.12-2.64,3.12c-0.77,0-1.44-0.34-1.79-0.91h-0.02v3.15h-1.04V402.03z M443.92,403.58
		c0,0.16,0.02,0.3,0.05,0.43c0.19,0.73,0.83,1.24,1.58,1.24c1.12,0,1.76-0.91,1.76-2.24c0-1.16-0.61-2.16-1.73-2.16
		c-0.72,0-1.39,0.52-1.59,1.31c-0.04,0.13-0.07,0.29-0.07,0.43V403.58z"/>
	<path class="st5" d="M454.9,402.99c0,2.15-1.49,3.08-2.89,3.08c-1.57,0-2.78-1.15-2.78-2.99c0-1.94,1.27-3.08,2.88-3.08
		C453.77,400,454.9,401.22,454.9,402.99z M450.29,403.05c0,1.27,0.73,2.23,1.76,2.23c1.01,0,1.76-0.95,1.76-2.25
		c0-0.98-0.49-2.23-1.74-2.23C450.83,400.8,450.29,401.95,450.29,403.05z"/>
	<path class="st5" d="M456.03,404.86c0.31,0.2,0.86,0.42,1.39,0.42c0.77,0,1.13-0.38,1.13-0.86c0-0.5-0.3-0.78-1.08-1.07
		c-1.04-0.37-1.54-0.95-1.54-1.64c0-0.94,0.76-1.7,2-1.7c0.59,0,1.1,0.17,1.43,0.36l-0.26,0.77c-0.23-0.14-0.65-0.34-1.19-0.34
		c-0.62,0-0.97,0.36-0.97,0.79c0,0.48,0.35,0.7,1.1,0.98c1.01,0.38,1.52,0.89,1.52,1.75c0,1.02-0.79,1.74-2.17,1.74
		c-0.64,0-1.22-0.16-1.63-0.4L456.03,404.86z"/>
	<path class="st5" d="M462.04,398.51c0.01,0.36-0.25,0.65-0.67,0.65c-0.37,0-0.64-0.29-0.64-0.65c0-0.37,0.28-0.66,0.66-0.66
		C461.79,397.85,462.04,398.13,462.04,398.51z M460.87,405.94v-5.8h1.05v5.8H460.87z"/>
	<path class="st5" d="M464.88,398.47v1.67h1.51v0.8h-1.51v3.13c0,0.72,0.2,1.13,0.79,1.13c0.28,0,0.48-0.04,0.61-0.07l0.05,0.79
		c-0.2,0.08-0.53,0.14-0.94,0.14c-0.49,0-0.89-0.16-1.14-0.44c-0.3-0.31-0.41-0.83-0.41-1.51v-3.17h-0.9v-0.8h0.9v-1.39
		L464.88,398.47z"/>
	<path class="st5" d="M468.7,398.51c0.01,0.36-0.25,0.65-0.67,0.65c-0.37,0-0.64-0.29-0.64-0.65c0-0.37,0.28-0.66,0.66-0.66
		C468.45,397.85,468.7,398.13,468.7,398.51z M467.52,405.94v-5.8h1.05v5.8H467.52z"/>
	<path class="st5" d="M475.52,402.99c0,2.15-1.49,3.08-2.89,3.08c-1.57,0-2.78-1.15-2.78-2.99c0-1.94,1.27-3.08,2.88-3.08
		C474.4,400,475.52,401.22,475.52,402.99z M470.92,403.05c0,1.27,0.73,2.23,1.76,2.23c1.01,0,1.76-0.95,1.76-2.25
		c0-0.98-0.49-2.23-1.74-2.23C471.46,400.8,470.92,401.95,470.92,403.05z"/>
	<path class="st5" d="M476.8,401.71c0-0.6-0.01-1.09-0.05-1.57h0.94l0.06,0.96h0.02c0.29-0.55,0.96-1.09,1.92-1.09
		c0.8,0,2.05,0.48,2.05,2.47v3.47h-1.05v-3.35c0-0.94-0.35-1.72-1.34-1.72c-0.7,0-1.24,0.49-1.42,1.08
		c-0.05,0.13-0.07,0.31-0.07,0.49v3.49h-1.05V401.71z"/>
	<path class="st5" d="M483.99,403.23c0.02,1.43,0.94,2.02,1.99,2.02c0.76,0,1.21-0.13,1.61-0.3l0.18,0.75
		c-0.37,0.17-1.01,0.36-1.93,0.36c-1.79,0-2.85-1.18-2.85-2.93s1.03-3.13,2.72-3.13c1.89,0,2.4,1.67,2.4,2.73
		c0,0.22-0.02,0.38-0.04,0.49H483.99z M487.08,402.48c0.01-0.67-0.28-1.72-1.46-1.72c-1.07,0-1.54,0.98-1.62,1.72H487.08z"/>
	<path class="st5" d="M494.36,397.43v7.02c0,0.52,0.01,1.1,0.05,1.5h-0.95l-0.05-1.01h-0.02c-0.32,0.65-1.03,1.14-1.98,1.14
		c-1.4,0-2.48-1.19-2.48-2.95c-0.01-1.93,1.19-3.12,2.6-3.12c0.89,0,1.49,0.42,1.75,0.89h0.02v-3.47H494.36z M493.31,402.5
		c0-0.13-0.01-0.31-0.05-0.44c-0.16-0.67-0.73-1.22-1.52-1.22c-1.09,0-1.74,0.96-1.74,2.24c0,1.17,0.58,2.15,1.71,2.15
		c0.71,0,1.36-0.47,1.55-1.26c0.04-0.14,0.05-0.29,0.05-0.46V402.5z"/>
	<path class="st5" d="M499.81,398.47v1.67h1.51v0.8h-1.51v3.13c0,0.72,0.2,1.13,0.79,1.13c0.28,0,0.48-0.04,0.61-0.07l0.05,0.79
		c-0.2,0.08-0.53,0.14-0.94,0.14c-0.49,0-0.89-0.16-1.14-0.44c-0.3-0.31-0.41-0.83-0.41-1.51v-3.17h-0.9v-0.8h0.9v-1.39
		L499.81,398.47z"/>
	<path class="st5" d="M507.64,402.99c0,2.15-1.49,3.08-2.89,3.08c-1.57,0-2.78-1.15-2.78-2.99c0-1.94,1.27-3.08,2.88-3.08
		C506.51,400,507.64,401.22,507.64,402.99z M503.03,403.05c0,1.27,0.73,2.23,1.76,2.23c1.01,0,1.76-0.95,1.76-2.25
		c0-0.98-0.49-2.23-1.74-2.23C503.57,400.8,503.03,401.95,503.03,403.05z"/>
	<path class="st5" d="M516.41,397.43v7.02c0,0.52,0.01,1.1,0.05,1.5h-0.95l-0.05-1.01h-0.02c-0.32,0.65-1.03,1.14-1.98,1.14
		c-1.4,0-2.48-1.19-2.48-2.95c-0.01-1.93,1.19-3.12,2.6-3.12c0.89,0,1.49,0.42,1.75,0.89h0.02v-3.47H516.41z M515.35,402.5
		c0-0.13-0.01-0.31-0.05-0.44c-0.16-0.67-0.73-1.22-1.52-1.22c-1.09,0-1.74,0.96-1.74,2.24c0,1.17,0.58,2.15,1.71,2.15
		c0.71,0,1.36-0.47,1.55-1.26c0.04-0.14,0.05-0.29,0.05-0.46V402.5z"/>
	<path class="st5" d="M518.69,403.23c0.02,1.43,0.94,2.02,1.99,2.02c0.76,0,1.21-0.13,1.61-0.3l0.18,0.75
		c-0.37,0.17-1.01,0.36-1.93,0.36c-1.79,0-2.85-1.18-2.85-2.93s1.03-3.13,2.72-3.13c1.89,0,2.4,1.67,2.4,2.73
		c0,0.22-0.02,0.38-0.04,0.49H518.69z M521.78,402.48c0.01-0.67-0.28-1.72-1.46-1.72c-1.07,0-1.54,0.98-1.62,1.72H521.78z"/>
	<path class="st5" d="M527.27,405.94l-0.08-0.73h-0.04c-0.32,0.46-0.95,0.86-1.78,0.86c-1.17,0-1.77-0.83-1.77-1.67
		c0-1.4,1.25-2.17,3.49-2.16v-0.12c0-0.48-0.13-1.34-1.32-1.34c-0.54,0-1.1,0.17-1.51,0.43l-0.24-0.7c0.48-0.31,1.17-0.52,1.91-0.52
		c1.78,0,2.21,1.21,2.21,2.37v2.17c0,0.5,0.02,1,0.1,1.39H527.27z M527.11,402.98c-1.15-0.02-2.46,0.18-2.46,1.31
		c0,0.68,0.46,1.01,1,1.01c0.76,0,1.24-0.48,1.4-0.97c0.04-0.11,0.06-0.23,0.06-0.34V402.98z"/>
	<path class="st5" d="M529.78,397.43h1.05v8.52h-1.05V397.43z"/>
	<path class="st5" d="M535.45,400.14l0.77,2.95c0.17,0.65,0.32,1.25,0.43,1.85h0.04c0.13-0.59,0.32-1.21,0.52-1.83l0.95-2.96h0.89
		l0.9,2.9c0.22,0.7,0.38,1.31,0.52,1.89h0.04c0.1-0.59,0.25-1.2,0.44-1.88l0.83-2.91h1.04l-1.87,5.8h-0.96l-0.89-2.77
		c-0.2-0.65-0.37-1.22-0.52-1.91h-0.02c-0.14,0.7-0.32,1.3-0.53,1.92l-0.94,2.76h-0.96l-1.75-5.8H535.45z"/>
	<path class="st5" d="M544.98,398.51c0.01,0.36-0.25,0.65-0.67,0.65c-0.37,0-0.64-0.29-0.64-0.65c0-0.37,0.28-0.66,0.66-0.66
		C544.73,397.85,544.98,398.13,544.98,398.51z M543.81,405.94v-5.8h1.05v5.8H543.81z"/>
	<path class="st5" d="M547.82,398.47v1.67h1.51v0.8h-1.51v3.13c0,0.72,0.2,1.13,0.79,1.13c0.28,0,0.48-0.04,0.61-0.07l0.05,0.79
		c-0.2,0.08-0.53,0.14-0.94,0.14c-0.49,0-0.89-0.16-1.14-0.44c-0.3-0.31-0.41-0.83-0.41-1.51v-3.17h-0.9v-0.8h0.9v-1.39
		L547.82,398.47z"/>
	<path class="st5" d="M550.47,397.43h1.05v3.62h0.02c0.17-0.3,0.43-0.56,0.76-0.74c0.31-0.18,0.68-0.3,1.08-0.3
		c0.78,0,2.03,0.48,2.03,2.48v3.45h-1.05v-3.33c0-0.94-0.35-1.73-1.34-1.73c-0.68,0-1.22,0.48-1.42,1.06
		c-0.06,0.14-0.07,0.3-0.07,0.5v3.5h-1.05V397.43z"/>
	<path class="st5" d="M560.82,398.47v1.67h1.51v0.8h-1.51v3.13c0,0.72,0.2,1.13,0.79,1.13c0.28,0,0.48-0.04,0.61-0.07l0.05,0.79
		c-0.2,0.08-0.53,0.14-0.94,0.14c-0.49,0-0.89-0.16-1.14-0.44c-0.3-0.31-0.41-0.83-0.41-1.51v-3.17h-0.9v-0.8h0.9v-1.39
		L560.82,398.47z"/>
	<path class="st5" d="M563.46,397.43h1.05v3.62h0.02c0.17-0.3,0.43-0.56,0.76-0.74c0.31-0.18,0.68-0.3,1.08-0.3
		c0.78,0,2.03,0.48,2.03,2.48v3.45h-1.05v-3.33c0-0.94-0.35-1.73-1.34-1.73c-0.68,0-1.22,0.48-1.42,1.06
		c-0.06,0.14-0.07,0.3-0.07,0.5v3.5h-1.05V397.43z"/>
	<path class="st5" d="M570.65,403.23c0.02,1.43,0.94,2.02,1.99,2.02c0.76,0,1.21-0.13,1.61-0.3l0.18,0.75
		c-0.37,0.17-1.01,0.36-1.93,0.36c-1.79,0-2.85-1.18-2.85-2.93s1.03-3.13,2.72-3.13c1.89,0,2.4,1.67,2.4,2.73
		c0,0.22-0.02,0.38-0.04,0.49H570.65z M573.74,402.48c0.01-0.67-0.28-1.72-1.46-1.72c-1.07,0-1.54,0.98-1.62,1.72H573.74z"/>
	<path class="st5" d="M586.23,402.99c0,2.15-1.49,3.08-2.89,3.08c-1.57,0-2.78-1.15-2.78-2.99c0-1.94,1.27-3.08,2.88-3.08
		C585.11,400,586.23,401.22,586.23,402.99z M581.63,403.05c0,1.27,0.73,2.23,1.76,2.23c1.01,0,1.76-0.95,1.76-2.25
		c0-0.98-0.49-2.23-1.74-2.23C582.17,400.8,581.63,401.95,581.63,403.05z"/>
	<path class="st5" d="M592.37,404.36c0,0.6,0.01,1.13,0.05,1.58h-0.94l-0.06-0.95h-0.02c-0.28,0.47-0.89,1.08-1.92,1.08
		c-0.91,0-2-0.5-2-2.54v-3.39h1.05v3.21c0,1.1,0.34,1.85,1.3,1.85c0.71,0,1.2-0.49,1.39-0.96c0.06-0.16,0.1-0.35,0.1-0.54v-3.56
		h1.05V404.36z"/>
	<path class="st5" d="M595.33,398.47v1.67h1.51v0.8h-1.51v3.13c0,0.72,0.2,1.13,0.79,1.13c0.28,0,0.48-0.04,0.61-0.07l0.05,0.79
		c-0.2,0.08-0.53,0.14-0.94,0.14c-0.49,0-0.89-0.16-1.14-0.44c-0.3-0.31-0.41-0.83-0.41-1.51v-3.17h-0.9v-0.8h0.9v-1.39
		L595.33,398.47z"/>
	<path class="st5" d="M600.42,402.31v0.78h-2.96v-0.78H600.42z"/>
	<path class="st5" d="M365.01,420.94c0.02-0.4,0.05-0.98,0.05-1.5v-7.02h1.04v3.65h0.02c0.37-0.65,1.04-1.07,1.98-1.07
		c1.44,0,2.46,1.2,2.45,2.96c0,2.08-1.31,3.11-2.6,3.11c-0.84,0-1.51-0.32-1.94-1.09h-0.04l-0.05,0.96H365.01z M366.1,418.61
		c0,0.13,0.02,0.26,0.05,0.38c0.2,0.73,0.82,1.24,1.58,1.24c1.1,0,1.76-0.9,1.76-2.23c0-1.16-0.6-2.16-1.73-2.16
		c-0.72,0-1.39,0.49-1.61,1.3c-0.02,0.12-0.06,0.26-0.06,0.43V418.61z"/>
	<path class="st5" d="M371.83,416.95c0-0.68-0.01-1.27-0.05-1.81h0.92l0.04,1.14h0.05c0.26-0.78,0.9-1.27,1.61-1.27
		c0.12,0,0.2,0.01,0.3,0.04v1c-0.11-0.02-0.22-0.04-0.36-0.04c-0.74,0-1.27,0.56-1.42,1.36c-0.02,0.14-0.05,0.31-0.05,0.49v3.09
		h-1.04V416.95z"/>
	<path class="st5" d="M376.16,418.23c0.02,1.43,0.94,2.02,1.99,2.02c0.76,0,1.21-0.13,1.61-0.3l0.18,0.75
		c-0.37,0.17-1.01,0.36-1.93,0.36c-1.79,0-2.85-1.18-2.85-2.93s1.03-3.13,2.72-3.13c1.89,0,2.4,1.67,2.4,2.73
		c0,0.22-0.02,0.38-0.04,0.49H376.16z M379.25,417.48c0.01-0.67-0.28-1.72-1.46-1.72c-1.07,0-1.54,0.98-1.62,1.72H379.25z"/>
	<path class="st5" d="M384.74,420.94l-0.08-0.73h-0.04c-0.32,0.46-0.95,0.86-1.78,0.86c-1.17,0-1.77-0.83-1.77-1.67
		c0-1.4,1.25-2.17,3.49-2.16v-0.12c0-0.48-0.13-1.34-1.32-1.34c-0.54,0-1.1,0.17-1.51,0.43l-0.24-0.7c0.48-0.31,1.17-0.52,1.91-0.52
		c1.78,0,2.21,1.21,2.21,2.37v2.17c0,0.5,0.02,1,0.1,1.39H384.74z M384.58,417.98c-1.15-0.02-2.46,0.18-2.46,1.31
		c0,0.68,0.46,1.01,1,1.01c0.76,0,1.24-0.48,1.4-0.97c0.04-0.11,0.06-0.23,0.06-0.34V417.98z"/>
	<path class="st5" d="M388.29,417.8h0.02c0.14-0.2,0.35-0.46,0.52-0.66l1.7-2h1.27l-2.24,2.39l2.55,3.42h-1.28l-2-2.78l-0.54,0.6
		v2.18h-1.04v-8.52h1.04V417.8z"/>
	<path class="st5" d="M398.51,420.94l-0.08-0.73h-0.04c-0.32,0.46-0.95,0.86-1.78,0.86c-1.17,0-1.77-0.83-1.77-1.67
		c0-1.4,1.25-2.17,3.49-2.16v-0.12c0-0.48-0.13-1.34-1.32-1.34c-0.54,0-1.1,0.17-1.51,0.43l-0.24-0.7c0.48-0.31,1.17-0.52,1.91-0.52
		c1.78,0,2.21,1.21,2.21,2.37v2.17c0,0.5,0.02,1,0.1,1.39H398.51z M398.36,417.98c-1.15-0.02-2.46,0.18-2.46,1.31
		c0,0.68,0.46,1.01,1,1.01c0.76,0,1.24-0.48,1.4-0.97c0.04-0.11,0.06-0.23,0.06-0.34V417.98z"/>
	<path class="st5" d="M401.02,416.71c0-0.6-0.01-1.09-0.05-1.57h0.94l0.06,0.96h0.02c0.29-0.55,0.96-1.09,1.92-1.09
		c0.8,0,2.05,0.48,2.05,2.47v3.47h-1.05v-3.35c0-0.94-0.35-1.72-1.34-1.72c-0.7,0-1.24,0.49-1.42,1.08
		c-0.05,0.13-0.07,0.31-0.07,0.49v3.49h-1.05V416.71z"/>
	<path class="st5" d="M412.63,412.43v7.02c0,0.52,0.01,1.1,0.05,1.5h-0.95l-0.05-1.01h-0.02c-0.32,0.65-1.03,1.14-1.98,1.14
		c-1.4,0-2.48-1.19-2.48-2.95c-0.01-1.93,1.19-3.12,2.6-3.12c0.89,0,1.49,0.42,1.75,0.89h0.02v-3.47H412.63z M411.58,417.5
		c0-0.13-0.01-0.31-0.05-0.44c-0.16-0.67-0.73-1.22-1.52-1.22c-1.09,0-1.74,0.96-1.74,2.24c0,1.17,0.58,2.15,1.71,2.15
		c0.71,0,1.36-0.47,1.55-1.26c0.04-0.14,0.05-0.29,0.05-0.46V417.5z"/>
	<path class="st5" d="M417.99,413.51c0.01,0.36-0.25,0.65-0.67,0.65c-0.37,0-0.64-0.29-0.64-0.65c0-0.37,0.28-0.66,0.66-0.66
		C417.74,412.85,417.99,413.13,417.99,413.51z M416.81,420.94v-5.8h1.05v5.8H416.81z"/>
	<path class="st5" d="M420.83,413.47v1.67h1.51v0.8h-1.51v3.13c0,0.72,0.2,1.13,0.79,1.13c0.28,0,0.48-0.04,0.61-0.07l0.05,0.79
		c-0.2,0.08-0.53,0.14-0.94,0.14c-0.49,0-0.89-0.16-1.14-0.44c-0.3-0.31-0.41-0.83-0.41-1.51v-3.17h-0.9v-0.8h0.9v-1.39
		L420.83,413.47z"/>
	<path class="st5" d="M423.33,419.86c0.31,0.2,0.86,0.42,1.39,0.42c0.77,0,1.13-0.38,1.13-0.86c0-0.5-0.3-0.78-1.08-1.07
		c-1.04-0.37-1.54-0.95-1.54-1.64c0-0.94,0.76-1.7,2-1.7c0.59,0,1.1,0.17,1.43,0.36l-0.26,0.77c-0.23-0.14-0.65-0.34-1.19-0.34
		c-0.62,0-0.97,0.36-0.97,0.79c0,0.48,0.35,0.7,1.1,0.98c1.01,0.38,1.52,0.89,1.52,1.75c0,1.02-0.79,1.74-2.17,1.74
		c-0.64,0-1.22-0.16-1.63-0.4L423.33,419.86z"/>
	<path class="st5" d="M431.07,415.14l0.77,2.95c0.17,0.65,0.32,1.25,0.43,1.85h0.04c0.13-0.59,0.32-1.21,0.52-1.83l0.95-2.96h0.89
		l0.9,2.9c0.22,0.7,0.38,1.31,0.52,1.89h0.04c0.1-0.59,0.25-1.2,0.44-1.88l0.83-2.91h1.04l-1.87,5.8h-0.96l-0.89-2.77
		c-0.2-0.65-0.37-1.22-0.52-1.91h-0.02c-0.14,0.7-0.32,1.3-0.53,1.92l-0.94,2.76h-0.96l-1.75-5.8H431.07z"/>
	<path class="st5" d="M440.6,413.51c0.01,0.36-0.25,0.65-0.67,0.65c-0.37,0-0.64-0.29-0.64-0.65c0-0.37,0.28-0.66,0.66-0.66
		C440.34,412.85,440.6,413.13,440.6,413.51z M439.42,420.94v-5.8h1.05v5.8H439.42z"/>
	<path class="st5" d="M442.17,416.71c0-0.6-0.01-1.09-0.05-1.57h0.94l0.06,0.96h0.02c0.29-0.55,0.96-1.09,1.92-1.09
		c0.8,0,2.05,0.48,2.05,2.47v3.47h-1.05v-3.35c0-0.94-0.35-1.72-1.34-1.72c-0.7,0-1.24,0.49-1.42,1.08
		c-0.05,0.13-0.07,0.31-0.07,0.49v3.49h-1.05V416.71z"/>
	<path class="st5" d="M449.99,413.47v1.67h1.51v0.8h-1.51v3.13c0,0.72,0.2,1.13,0.79,1.13c0.28,0,0.48-0.04,0.61-0.07l0.05,0.79
		c-0.2,0.08-0.53,0.14-0.94,0.14c-0.49,0-0.89-0.16-1.14-0.44c-0.3-0.31-0.41-0.83-0.41-1.51v-3.17h-0.9v-0.8h0.9v-1.39
		L449.99,413.47z"/>
	<path class="st5" d="M453.15,418.23c0.02,1.43,0.94,2.02,1.99,2.02c0.76,0,1.21-0.13,1.61-0.3l0.18,0.75
		c-0.37,0.17-1.01,0.36-1.93,0.36c-1.79,0-2.85-1.18-2.85-2.93s1.03-3.13,2.72-3.13c1.89,0,2.4,1.67,2.4,2.73
		c0,0.22-0.02,0.38-0.04,0.49H453.15z M456.24,417.48c0.01-0.67-0.28-1.72-1.46-1.72c-1.07,0-1.54,0.98-1.62,1.72H456.24z"/>
	<path class="st5" d="M458.51,416.95c0-0.68-0.01-1.27-0.05-1.81h0.92l0.04,1.14h0.05c0.26-0.78,0.9-1.27,1.61-1.27
		c0.12,0,0.2,0.01,0.3,0.04v1c-0.11-0.02-0.22-0.04-0.36-0.04c-0.74,0-1.27,0.56-1.42,1.36c-0.02,0.14-0.05,0.31-0.05,0.49v3.09
		h-1.04V416.95z"/>
	<path class="st5" d="M464.86,416.71c0-0.6-0.01-1.09-0.05-1.57h0.92l0.05,0.94h0.04c0.32-0.55,0.86-1.07,1.82-1.07
		c0.79,0,1.39,0.48,1.64,1.16h0.02c0.18-0.32,0.41-0.58,0.65-0.76c0.35-0.26,0.73-0.41,1.28-0.41c0.77,0,1.91,0.5,1.91,2.52v3.42
		h-1.03v-3.29c0-1.12-0.41-1.79-1.26-1.79c-0.6,0-1.07,0.44-1.25,0.96c-0.05,0.14-0.08,0.33-0.08,0.53v3.59h-1.03v-3.48
		c0-0.92-0.41-1.59-1.21-1.59c-0.66,0-1.14,0.53-1.31,1.06c-0.06,0.16-0.08,0.34-0.08,0.52v3.5h-1.03V416.71z"/>
	<path class="st5" d="M480.06,417.99c0,2.15-1.49,3.08-2.89,3.08c-1.57,0-2.78-1.15-2.78-2.99c0-1.94,1.27-3.08,2.88-3.08
		C478.93,415,480.06,416.22,480.06,417.99z M475.45,418.05c0,1.27,0.73,2.23,1.76,2.23c1.01,0,1.76-0.95,1.76-2.25
		c0-0.98-0.49-2.23-1.74-2.23C475.99,415.8,475.45,416.95,475.45,418.05z"/>
	<path class="st5" d="M481.34,416.71c0-0.6-0.01-1.09-0.05-1.57h0.94l0.06,0.96h0.02c0.29-0.55,0.96-1.09,1.92-1.09
		c0.8,0,2.05,0.48,2.05,2.47v3.47h-1.05v-3.35c0-0.94-0.35-1.72-1.34-1.72c-0.7,0-1.24,0.49-1.42,1.08
		c-0.05,0.13-0.07,0.31-0.07,0.49v3.49h-1.05V416.71z"/>
	<path class="st5" d="M489.16,413.47v1.67h1.51v0.8h-1.51v3.13c0,0.72,0.2,1.13,0.79,1.13c0.28,0,0.48-0.04,0.61-0.07l0.05,0.79
		c-0.2,0.08-0.53,0.14-0.94,0.14c-0.49,0-0.89-0.16-1.14-0.44c-0.3-0.31-0.41-0.83-0.41-1.51v-3.17h-0.9v-0.8h0.9v-1.39
		L489.16,413.47z"/>
	<path class="st5" d="M491.8,412.43h1.05v3.62h0.02c0.17-0.3,0.43-0.56,0.76-0.74c0.31-0.18,0.68-0.3,1.08-0.3
		c0.78,0,2.03,0.48,2.03,2.48v3.45h-1.05v-3.33c0-0.94-0.35-1.73-1.34-1.73c-0.68,0-1.22,0.48-1.42,1.06
		c-0.06,0.14-0.07,0.3-0.07,0.5v3.5h-1.05V412.43z"/>
	<path class="st5" d="M498.26,419.86c0.31,0.2,0.86,0.42,1.39,0.42c0.77,0,1.13-0.38,1.13-0.86c0-0.5-0.3-0.78-1.08-1.07
		c-1.04-0.37-1.54-0.95-1.54-1.64c0-0.94,0.76-1.7,2-1.7c0.59,0,1.1,0.17,1.43,0.36l-0.26,0.77c-0.23-0.14-0.65-0.34-1.19-0.34
		c-0.62,0-0.97,0.36-0.97,0.79c0,0.48,0.35,0.7,1.1,0.98c1.01,0.38,1.52,0.89,1.52,1.75c0,1.02-0.79,1.74-2.17,1.74
		c-0.64,0-1.22-0.16-1.63-0.4L498.26,419.86z"/>
	<path class="st5" d="M505.58,417.03c0-0.74-0.02-1.34-0.05-1.89h0.95l0.05,1h0.02c0.43-0.71,1.11-1.13,2.06-1.13
		c1.4,0,2.46,1.19,2.46,2.95c0,2.09-1.27,3.12-2.64,3.12c-0.77,0-1.44-0.34-1.79-0.91h-0.02v3.15h-1.04V417.03z M506.62,418.58
		c0,0.16,0.02,0.3,0.05,0.43c0.19,0.73,0.83,1.24,1.58,1.24c1.12,0,1.76-0.91,1.76-2.24c0-1.16-0.61-2.16-1.73-2.16
		c-0.72,0-1.39,0.52-1.59,1.31c-0.04,0.13-0.07,0.29-0.07,0.43V418.58z"/>
	<path class="st5" d="M517.6,417.99c0,2.15-1.49,3.08-2.89,3.08c-1.57,0-2.78-1.15-2.78-2.99c0-1.94,1.27-3.08,2.88-3.08
		C516.47,415,517.6,416.22,517.6,417.99z M512.99,418.05c0,1.27,0.73,2.23,1.76,2.23c1.01,0,1.76-0.95,1.76-2.25
		c0-0.98-0.49-2.23-1.74-2.23C513.53,415.8,512.99,416.95,512.99,418.05z"/>
	<path class="st5" d="M518.73,419.86c0.31,0.2,0.86,0.42,1.39,0.42c0.77,0,1.13-0.38,1.13-0.86c0-0.5-0.3-0.78-1.08-1.07
		c-1.04-0.37-1.54-0.95-1.54-1.64c0-0.94,0.76-1.7,2-1.7c0.59,0,1.1,0.17,1.43,0.36l-0.26,0.77c-0.23-0.14-0.65-0.34-1.19-0.34
		c-0.62,0-0.97,0.36-0.97,0.79c0,0.48,0.35,0.7,1.1,0.98c1.01,0.38,1.52,0.89,1.52,1.75c0,1.02-0.79,1.74-2.17,1.74
		c-0.64,0-1.22-0.16-1.63-0.4L518.73,419.86z"/>
	<path class="st5" d="M524.15,418.23c0.02,1.43,0.94,2.02,1.99,2.02c0.76,0,1.21-0.13,1.61-0.3l0.18,0.75
		c-0.37,0.17-1.01,0.36-1.93,0.36c-1.79,0-2.85-1.18-2.85-2.93s1.03-3.13,2.72-3.13c1.89,0,2.4,1.67,2.4,2.73
		c0,0.22-0.02,0.38-0.04,0.49H524.15z M527.24,417.48c0.01-0.67-0.28-1.72-1.46-1.72c-1.07,0-1.54,0.98-1.62,1.72H527.24z"/>
	<path class="st5" d="M537,415.14c-0.02,0.42-0.05,0.89-0.05,1.59v3.37c0,1.33-0.26,2.15-0.83,2.65c-0.56,0.53-1.38,0.7-2.11,0.7
		c-0.7,0-1.46-0.17-1.93-0.48l0.26-0.8c0.38,0.24,0.98,0.46,1.7,0.46c1.08,0,1.87-0.56,1.87-2.03v-0.65h-0.02
		c-0.32,0.54-0.95,0.97-1.85,0.97c-1.44,0-2.47-1.22-2.47-2.83c0-1.97,1.28-3.08,2.61-3.08c1.01,0,1.56,0.53,1.81,1.01h0.02
		l0.05-0.88H537z M535.91,417.43c0-0.18-0.01-0.34-0.06-0.48c-0.19-0.61-0.71-1.12-1.48-1.12c-1.01,0-1.73,0.85-1.73,2.2
		c0,1.14,0.58,2.09,1.71,2.09c0.65,0,1.24-0.41,1.46-1.08c0.06-0.18,0.08-0.38,0.08-0.56V417.43z"/>
	<path class="st5" d="M538.58,416.95c0-0.68-0.01-1.27-0.05-1.81h0.92l0.04,1.14h0.05c0.26-0.78,0.9-1.27,1.61-1.27
		c0.12,0,0.2,0.01,0.3,0.04v1c-0.11-0.02-0.22-0.04-0.36-0.04c-0.74,0-1.27,0.56-1.42,1.36c-0.02,0.14-0.05,0.31-0.05,0.49v3.09
		h-1.04V416.95z"/>
	<path class="st5" d="M542.91,418.23c0.02,1.43,0.94,2.02,1.99,2.02c0.76,0,1.21-0.13,1.61-0.3l0.18,0.75
		c-0.37,0.17-1.01,0.36-1.93,0.36c-1.79,0-2.85-1.18-2.85-2.93s1.03-3.13,2.72-3.13c1.89,0,2.4,1.67,2.4,2.73
		c0,0.22-0.02,0.38-0.04,0.49H542.91z M546,417.48c0.01-0.67-0.28-1.72-1.46-1.72c-1.07,0-1.54,0.98-1.62,1.72H546z"/>
	<path class="st5" d="M551.48,420.94l-0.08-0.73h-0.04c-0.32,0.46-0.95,0.86-1.78,0.86c-1.17,0-1.77-0.83-1.77-1.67
		c0-1.4,1.25-2.17,3.49-2.16v-0.12c0-0.48-0.13-1.34-1.32-1.34c-0.54,0-1.1,0.17-1.51,0.43l-0.24-0.7c0.48-0.31,1.17-0.52,1.91-0.52
		c1.78,0,2.21,1.21,2.21,2.37v2.17c0,0.5,0.02,1,0.1,1.39H551.48z M551.33,417.98c-1.15-0.02-2.46,0.18-2.46,1.31
		c0,0.68,0.46,1.01,1,1.01c0.76,0,1.24-0.48,1.4-0.97c0.04-0.11,0.06-0.23,0.06-0.34V417.98z"/>
	<path class="st5" d="M555.22,413.47v1.67h1.51v0.8h-1.51v3.13c0,0.72,0.2,1.13,0.79,1.13c0.28,0,0.48-0.04,0.61-0.07l0.05,0.79
		c-0.2,0.08-0.53,0.14-0.94,0.14c-0.49,0-0.89-0.16-1.14-0.44c-0.3-0.31-0.41-0.83-0.41-1.51v-3.17h-0.9v-0.8h0.9v-1.39
		L555.22,413.47z"/>
	<path class="st5" d="M558.37,418.23c0.02,1.43,0.94,2.02,1.99,2.02c0.76,0,1.21-0.13,1.61-0.3l0.18,0.75
		c-0.37,0.17-1.01,0.36-1.93,0.36c-1.79,0-2.85-1.18-2.85-2.93s1.03-3.13,2.72-3.13c1.89,0,2.4,1.67,2.4,2.73
		c0,0.22-0.02,0.38-0.04,0.49H558.37z M561.47,417.48c0.01-0.67-0.28-1.72-1.46-1.72c-1.07,0-1.54,0.98-1.62,1.72H561.47z"/>
	<path class="st5" d="M563.74,416.95c0-0.68-0.01-1.27-0.05-1.81h0.92l0.04,1.14h0.05c0.26-0.78,0.9-1.27,1.61-1.27
		c0.12,0,0.2,0.01,0.3,0.04v1c-0.11-0.02-0.22-0.04-0.36-0.04c-0.74,0-1.27,0.56-1.42,1.36c-0.02,0.14-0.05,0.31-0.05,0.49v3.09
		h-1.04V416.95z"/>
	<path class="st5" d="M570.09,416.95c0-0.68-0.01-1.27-0.05-1.81h0.92l0.04,1.14h0.05c0.26-0.78,0.9-1.27,1.61-1.27
		c0.12,0,0.2,0.01,0.3,0.04v1c-0.11-0.02-0.22-0.04-0.36-0.04c-0.74,0-1.27,0.56-1.42,1.36c-0.02,0.14-0.05,0.31-0.05,0.49v3.09
		h-1.04V416.95z"/>
	<path class="st5" d="M575.17,413.51c0.01,0.36-0.25,0.65-0.67,0.65c-0.37,0-0.64-0.29-0.64-0.65c0-0.37,0.28-0.66,0.66-0.66
		C574.92,412.85,575.17,413.13,575.17,413.51z M574,420.94v-5.8h1.05v5.8H574z"/>
	<path class="st5" d="M576.6,419.86c0.31,0.2,0.86,0.42,1.39,0.42c0.77,0,1.13-0.38,1.13-0.86c0-0.5-0.3-0.78-1.08-1.07
		c-1.04-0.37-1.54-0.95-1.54-1.64c0-0.94,0.76-1.7,2-1.7c0.59,0,1.1,0.17,1.43,0.36l-0.26,0.77c-0.23-0.14-0.65-0.34-1.19-0.34
		c-0.62,0-0.97,0.36-0.97,0.79c0,0.48,0.35,0.7,1.1,0.98c1.01,0.38,1.52,0.89,1.52,1.75c0,1.02-0.79,1.74-2.17,1.74
		c-0.64,0-1.22-0.16-1.63-0.4L576.6,419.86z"/>
	<path class="st5" d="M582.48,417.8h0.02c0.14-0.2,0.35-0.46,0.52-0.66l1.7-2h1.27l-2.24,2.39l2.55,3.42h-1.28l-2-2.78l-0.54,0.6
		v2.18h-1.04v-8.52h1.04V417.8z"/>
	<path class="st5" d="M586.86,419.86c0.31,0.2,0.86,0.42,1.39,0.42c0.77,0,1.13-0.38,1.13-0.86c0-0.5-0.3-0.78-1.08-1.07
		c-1.04-0.37-1.54-0.95-1.54-1.64c0-0.94,0.76-1.7,2-1.7c0.59,0,1.1,0.17,1.43,0.36l-0.26,0.77c-0.23-0.14-0.65-0.34-1.19-0.34
		c-0.62,0-0.97,0.36-0.97,0.79c0,0.48,0.35,0.7,1.1,0.98c1.01,0.38,1.52,0.89,1.52,1.75c0,1.02-0.79,1.74-2.17,1.74
		c-0.64,0-1.22-0.16-1.63-0.4L586.86,419.86z"/>
	<path class="st5" d="M370.31,432.99c0,2.15-1.49,3.08-2.89,3.08c-1.57,0-2.78-1.15-2.78-2.99c0-1.94,1.27-3.08,2.88-3.08
		C369.18,430,370.31,431.22,370.31,432.99z M365.71,433.05c0,1.27,0.73,2.23,1.76,2.23c1.01,0,1.76-0.95,1.76-2.25
		c0-0.98-0.49-2.23-1.74-2.23C366.24,430.8,365.71,431.95,365.71,433.05z"/>
	<path class="st5" d="M371.69,435.94v-5h-0.82v-0.8h0.82v-0.28c0-0.82,0.18-1.56,0.67-2.03c0.4-0.38,0.92-0.54,1.42-0.54
		c0.37,0,0.7,0.08,0.9,0.17l-0.14,0.82c-0.16-0.07-0.37-0.13-0.67-0.13c-0.9,0-1.13,0.79-1.13,1.68v0.31h1.4v0.8h-1.4v5H371.69z"/>
	<path class="st5" d="M380.73,435.94l-0.08-0.73h-0.04c-0.32,0.46-0.95,0.86-1.78,0.86c-1.17,0-1.77-0.83-1.77-1.67
		c0-1.4,1.25-2.17,3.49-2.16v-0.12c0-0.48-0.13-1.34-1.32-1.34c-0.54,0-1.1,0.17-1.51,0.43l-0.24-0.7c0.48-0.31,1.17-0.52,1.91-0.52
		c1.78,0,2.21,1.21,2.21,2.37v2.17c0,0.5,0.02,1,0.1,1.39H380.73z M380.57,432.98c-1.15-0.02-2.46,0.18-2.46,1.31
		c0,0.68,0.46,1.01,1,1.01c0.76,0,1.24-0.48,1.4-0.97c0.04-0.11,0.06-0.23,0.06-0.34V432.98z"/>
	<path class="st5" d="M383.24,431.71c0-0.6-0.01-1.09-0.05-1.57h0.94l0.06,0.96h0.02c0.29-0.55,0.96-1.09,1.92-1.09
		c0.8,0,2.05,0.48,2.05,2.47v3.47h-1.05v-3.35c0-0.94-0.35-1.72-1.34-1.72c-0.7,0-1.24,0.49-1.42,1.08
		c-0.05,0.13-0.07,0.31-0.07,0.49v3.49h-1.05V431.71z"/>
	<path class="st5" d="M395.54,435.94l-0.08-0.73h-0.04c-0.32,0.46-0.95,0.86-1.78,0.86c-1.17,0-1.77-0.83-1.77-1.67
		c0-1.4,1.25-2.17,3.49-2.16v-0.12c0-0.48-0.13-1.34-1.32-1.34c-0.54,0-1.1,0.17-1.51,0.43l-0.24-0.7c0.48-0.31,1.17-0.52,1.91-0.52
		c1.78,0,2.21,1.21,2.21,2.37v2.17c0,0.5,0.02,1,0.1,1.39H395.54z M395.38,432.98c-1.15-0.02-2.46,0.18-2.46,1.31
		c0,0.68,0.46,1.01,1,1.01c0.76,0,1.24-0.48,1.4-0.97c0.04-0.11,0.06-0.23,0.06-0.34V432.98z"/>
	<path class="st5" d="M402.18,435.73c-0.28,0.14-0.89,0.34-1.67,0.34c-1.75,0-2.89-1.19-2.89-2.96c0-1.79,1.22-3.08,3.12-3.08
		c0.62,0,1.17,0.16,1.46,0.3l-0.24,0.82c-0.25-0.14-0.65-0.28-1.22-0.28c-1.33,0-2.05,0.98-2.05,2.19c0,1.34,0.86,2.17,2.01,2.17
		c0.6,0,1-0.16,1.29-0.29L402.18,435.73z"/>
	<path class="st5" d="M407.43,435.73c-0.28,0.14-0.89,0.34-1.67,0.34c-1.75,0-2.89-1.19-2.89-2.96c0-1.79,1.22-3.08,3.12-3.08
		c0.62,0,1.17,0.16,1.46,0.3l-0.24,0.82c-0.25-0.14-0.65-0.28-1.22-0.28c-1.33,0-2.05,0.98-2.05,2.19c0,1.34,0.86,2.17,2.01,2.17
		c0.6,0,1-0.16,1.29-0.29L407.43,435.73z"/>
	<path class="st5" d="M409.12,433.23c0.02,1.43,0.94,2.02,1.99,2.02c0.76,0,1.21-0.13,1.61-0.3l0.18,0.75
		c-0.37,0.17-1.01,0.36-1.93,0.36c-1.79,0-2.85-1.18-2.85-2.93s1.03-3.13,2.72-3.13c1.89,0,2.4,1.67,2.4,2.73
		c0,0.22-0.02,0.38-0.04,0.49H409.12z M412.22,432.48c0.01-0.67-0.28-1.72-1.46-1.72c-1.07,0-1.54,0.98-1.62,1.72H412.22z"/>
	<path class="st5" d="M414.49,427.43h1.05v8.52h-1.05V427.43z"/>
	<path class="st5" d="M417.85,433.23c0.02,1.43,0.94,2.02,1.99,2.02c0.76,0,1.21-0.13,1.61-0.3l0.18,0.75
		c-0.37,0.17-1.01,0.36-1.93,0.36c-1.79,0-2.85-1.18-2.85-2.93s1.03-3.13,2.72-3.13c1.89,0,2.4,1.67,2.4,2.73
		c0,0.22-0.02,0.38-0.04,0.49H417.85z M420.94,432.48c0.01-0.67-0.28-1.72-1.46-1.72c-1.07,0-1.54,0.98-1.62,1.72H420.94z"/>
	<path class="st5" d="M423.21,431.95c0-0.68-0.01-1.27-0.05-1.81h0.92l0.04,1.14h0.05c0.26-0.78,0.9-1.27,1.61-1.27
		c0.12,0,0.2,0.01,0.3,0.04v1c-0.11-0.02-0.22-0.04-0.36-0.04c-0.74,0-1.27,0.56-1.42,1.36c-0.02,0.14-0.05,0.31-0.05,0.49v3.09
		h-1.04V431.95z"/>
	<path class="st5" d="M430.23,435.94l-0.08-0.73h-0.04c-0.32,0.46-0.95,0.86-1.78,0.86c-1.17,0-1.77-0.83-1.77-1.67
		c0-1.4,1.25-2.17,3.49-2.16v-0.12c0-0.48-0.13-1.34-1.32-1.34c-0.54,0-1.1,0.17-1.51,0.43l-0.24-0.7c0.48-0.31,1.17-0.52,1.91-0.52
		c1.78,0,2.21,1.21,2.21,2.37v2.17c0,0.5,0.02,1,0.1,1.39H430.23z M430.07,432.98c-1.15-0.02-2.46,0.18-2.46,1.31
		c0,0.68,0.46,1.01,1,1.01c0.76,0,1.24-0.48,1.4-0.97c0.04-0.11,0.06-0.23,0.06-0.34V432.98z"/>
	<path class="st5" d="M433.96,428.47v1.67h1.51v0.8h-1.51v3.13c0,0.72,0.2,1.13,0.79,1.13c0.28,0,0.48-0.04,0.61-0.07l0.05,0.79
		c-0.2,0.08-0.53,0.14-0.94,0.14c-0.49,0-0.89-0.16-1.14-0.44c-0.3-0.31-0.41-0.83-0.41-1.51v-3.17h-0.9v-0.8h0.9v-1.39
		L433.96,428.47z"/>
	<path class="st5" d="M437.78,428.51c0.01,0.36-0.25,0.65-0.67,0.65c-0.37,0-0.64-0.29-0.64-0.65c0-0.37,0.28-0.66,0.66-0.66
		C437.52,427.85,437.78,428.13,437.78,428.51z M436.6,435.94v-5.8h1.05v5.8H436.6z"/>
	<path class="st5" d="M444.6,432.99c0,2.15-1.49,3.08-2.89,3.08c-1.57,0-2.78-1.15-2.78-2.99c0-1.94,1.27-3.08,2.88-3.08
		C443.47,430,444.6,431.22,444.6,432.99z M440,433.05c0,1.27,0.73,2.23,1.76,2.23c1.01,0,1.76-0.95,1.76-2.25
		c0-0.98-0.49-2.23-1.74-2.23C440.54,430.8,440,431.95,440,433.05z"/>
	<path class="st5" d="M445.88,431.71c0-0.6-0.01-1.09-0.05-1.57h0.94l0.06,0.96h0.02c0.29-0.55,0.96-1.09,1.92-1.09
		c0.8,0,2.05,0.48,2.05,2.47v3.47h-1.05v-3.35c0-0.94-0.35-1.72-1.34-1.72c-0.7,0-1.24,0.49-1.42,1.08
		c-0.05,0.13-0.07,0.31-0.07,0.49v3.49h-1.05V431.71z"/>
	<path class="st5" d="M456.14,428.51c0.01,0.36-0.25,0.65-0.67,0.65c-0.37,0-0.64-0.29-0.64-0.65c0-0.37,0.28-0.66,0.66-0.66
		C455.88,427.85,456.14,428.13,456.14,428.51z M454.96,435.94v-5.8h1.05v5.8H454.96z"/>
	<path class="st5" d="M457.71,431.71c0-0.6-0.01-1.09-0.05-1.57h0.94l0.06,0.96h0.02c0.29-0.55,0.96-1.09,1.92-1.09
		c0.8,0,2.05,0.48,2.05,2.47v3.47h-1.05v-3.35c0-0.94-0.35-1.72-1.34-1.72c-0.7,0-1.24,0.49-1.42,1.08
		c-0.05,0.13-0.07,0.31-0.07,0.49v3.49h-1.05V431.71z"/>
	<path class="st5" d="M470.93,435.73c-0.28,0.14-0.89,0.34-1.67,0.34c-1.75,0-2.89-1.19-2.89-2.96c0-1.79,1.22-3.08,3.12-3.08
		c0.62,0,1.17,0.16,1.46,0.3l-0.24,0.82c-0.25-0.14-0.65-0.28-1.22-0.28c-1.33,0-2.05,0.98-2.05,2.19c0,1.34,0.86,2.17,2.01,2.17
		c0.6,0,1-0.16,1.29-0.29L470.93,435.73z"/>
	<path class="st5" d="M475.32,435.94l-0.08-0.73h-0.04c-0.32,0.46-0.95,0.86-1.78,0.86c-1.17,0-1.77-0.83-1.77-1.67
		c0-1.4,1.25-2.17,3.49-2.16v-0.12c0-0.48-0.13-1.34-1.32-1.34c-0.54,0-1.1,0.17-1.51,0.43l-0.24-0.7c0.48-0.31,1.17-0.52,1.91-0.52
		c1.78,0,2.21,1.21,2.21,2.37v2.17c0,0.5,0.02,1,0.1,1.39H475.32z M475.17,432.98c-1.15-0.02-2.46,0.18-2.46,1.31
		c0,0.68,0.46,1.01,1,1.01c0.76,0,1.24-0.48,1.4-0.97c0.04-0.11,0.06-0.23,0.06-0.34V432.98z"/>
	<path class="st5" d="M477.69,434.86c0.31,0.2,0.86,0.42,1.39,0.42c0.77,0,1.13-0.38,1.13-0.86c0-0.5-0.3-0.78-1.08-1.07
		c-1.04-0.37-1.54-0.95-1.54-1.64c0-0.94,0.76-1.7,2-1.7c0.59,0,1.1,0.17,1.43,0.36l-0.26,0.77c-0.23-0.14-0.65-0.34-1.19-0.34
		c-0.62,0-0.97,0.36-0.97,0.79c0,0.48,0.35,0.7,1.1,0.98c1.01,0.38,1.52,0.89,1.52,1.75c0,1.02-0.79,1.74-2.17,1.74
		c-0.64,0-1.22-0.16-1.63-0.4L477.69,434.86z"/>
	<path class="st5" d="M483.11,433.23c0.02,1.43,0.94,2.02,1.99,2.02c0.76,0,1.21-0.13,1.61-0.3l0.18,0.75
		c-0.37,0.17-1.01,0.36-1.93,0.36c-1.79,0-2.85-1.18-2.85-2.93s1.03-3.13,2.72-3.13c1.89,0,2.4,1.67,2.4,2.73
		c0,0.22-0.02,0.38-0.04,0.49H483.11z M486.21,432.48c0.01-0.67-0.28-1.72-1.46-1.72c-1.07,0-1.54,0.98-1.62,1.72H486.21z"/>
	<path class="st5" d="M490.96,431.71c0-0.6-0.01-1.09-0.05-1.57h0.94l0.06,0.96h0.02c0.29-0.55,0.96-1.09,1.92-1.09
		c0.8,0,2.05,0.48,2.05,2.47v3.47h-1.05v-3.35c0-0.94-0.35-1.72-1.34-1.72c-0.7,0-1.24,0.49-1.42,1.08
		c-0.05,0.13-0.07,0.31-0.07,0.49v3.49h-1.05V431.71z"/>
	<path class="st5" d="M502.42,434.36c0,0.6,0.01,1.13,0.05,1.58h-0.94l-0.06-0.95h-0.02c-0.28,0.47-0.89,1.08-1.92,1.08
		c-0.91,0-2-0.5-2-2.54v-3.39h1.05v3.21c0,1.1,0.34,1.85,1.3,1.85c0.71,0,1.2-0.49,1.39-0.96c0.06-0.16,0.1-0.35,0.1-0.54v-3.56
		h1.05V434.36z"/>
	<path class="st5" d="M504.11,431.71c0-0.6-0.01-1.09-0.05-1.57h0.92l0.05,0.94h0.04c0.32-0.55,0.86-1.07,1.82-1.07
		c0.79,0,1.39,0.48,1.64,1.16h0.02c0.18-0.32,0.41-0.58,0.65-0.76c0.35-0.26,0.73-0.41,1.28-0.41c0.77,0,1.91,0.5,1.91,2.52v3.42
		h-1.03v-3.29c0-1.12-0.41-1.79-1.26-1.79c-0.6,0-1.07,0.44-1.25,0.96c-0.05,0.14-0.08,0.33-0.08,0.53v3.59h-1.03v-3.48
		c0-0.92-0.41-1.59-1.21-1.59c-0.66,0-1.14,0.53-1.31,1.06c-0.06,0.16-0.08,0.34-0.08,0.52v3.5h-1.03V431.71z"/>
	<path class="st5" d="M514.01,435.94c0.02-0.4,0.05-0.98,0.05-1.5v-7.02h1.04v3.65h0.02c0.37-0.65,1.04-1.07,1.98-1.07
		c1.44,0,2.46,1.2,2.45,2.96c0,2.08-1.31,3.11-2.6,3.11c-0.84,0-1.51-0.32-1.94-1.09h-0.04l-0.05,0.96H514.01z M515.1,433.61
		c0,0.13,0.02,0.26,0.05,0.38c0.2,0.73,0.82,1.24,1.58,1.24c1.1,0,1.76-0.9,1.76-2.23c0-1.16-0.6-2.16-1.73-2.16
		c-0.72,0-1.39,0.49-1.61,1.3c-0.02,0.12-0.06,0.26-0.06,0.43V433.61z"/>
	<path class="st5" d="M521.42,433.23c0.02,1.43,0.94,2.02,1.99,2.02c0.76,0,1.21-0.13,1.61-0.3l0.18,0.75
		c-0.37,0.17-1.01,0.36-1.93,0.36c-1.79,0-2.85-1.18-2.85-2.93s1.03-3.13,2.72-3.13c1.89,0,2.4,1.67,2.4,2.73
		c0,0.22-0.02,0.38-0.04,0.49H521.42z M524.51,432.48c0.01-0.67-0.28-1.72-1.46-1.72c-1.07,0-1.54,0.98-1.62,1.72H524.51z"/>
	<path class="st5" d="M526.78,431.95c0-0.68-0.01-1.27-0.05-1.81h0.92l0.04,1.14h0.05c0.26-0.78,0.9-1.27,1.61-1.27
		c0.12,0,0.2,0.01,0.3,0.04v1c-0.11-0.02-0.22-0.04-0.36-0.04c-0.74,0-1.27,0.56-1.42,1.36c-0.02,0.14-0.05,0.31-0.05,0.49v3.09
		h-1.04V431.95z"/>
	<path class="st5" d="M530.5,434.86c0.31,0.2,0.86,0.42,1.39,0.42c0.77,0,1.13-0.38,1.13-0.86c0-0.5-0.3-0.78-1.08-1.07
		c-1.04-0.37-1.54-0.95-1.54-1.64c0-0.94,0.76-1.7,2-1.7c0.59,0,1.1,0.17,1.43,0.36l-0.26,0.77c-0.23-0.14-0.65-0.34-1.19-0.34
		c-0.62,0-0.97,0.36-0.97,0.79c0,0.48,0.35,0.7,1.1,0.98c1.01,0.38,1.52,0.89,1.52,1.75c0,1.02-0.79,1.74-2.17,1.74
		c-0.64,0-1.22-0.16-1.63-0.4L530.5,434.86z"/>
	<path class="st5" d="M534.95,435.32c0-0.44,0.3-0.75,0.72-0.75c0.42,0,0.71,0.31,0.71,0.75c0,0.43-0.28,0.76-0.72,0.76
		C535.24,436.07,534.95,435.75,534.95,435.32z"/>
</g>
<circle class="st6" cx="489.56" cy="169.67" r="29.58"/>
<linearGradient id="SVGID_4_" gradientUnits="userSpaceOnUse" x1="478.5313" y1="670.245" x2="735.723" y2="670.245" gradientTransform="matrix(0.5125 -0.9316 -0.8793 -0.7894 630.2402 1362.3473)">
	<stop  offset="0" style="stop-color:#FFF33B"/>
	<stop  offset="0.0595" style="stop-color:#FFE029"/>
	<stop  offset="0.1303" style="stop-color:#FFD218"/>
	<stop  offset="0.2032" style="stop-color:#FEC90F"/>
	<stop  offset="0.2809" style="stop-color:#FDC70C"/>
	<stop  offset="0.6685" style="stop-color:#F3903F"/>
	<stop  offset="0.8876" style="stop-color:#ED683C"/>
	<stop  offset="1" style="stop-color:#E93E3A"/>
</linearGradient>
<path style="fill:none;stroke:url(#SVGID_4_);stroke-miterlimit:10;" d="M475.16,199.25c-5.27,12.1-11.27,22.79-17.62,32.24
	c-62.38,92.77-183.68,102.34-229.26,103.48"/>
<circle class="st6" cx="404.09" cy="63.37" r="13.45"/>
<ellipse class="st8" cx="545.65" cy="57.93" rx="5.41" ry="5.44"/>
<line class="st9" x1="450.39" y1="390.01" x2="509.57" y2="313.67"/>
<circle class="st10" cx="574.69" cy="357" r="13.45"/>
<g>
	<g>
		<path d="M483.54,167.24v6.68h-1.09v6.37h-2.13v-6.49h-0.63v6.49h-2.14v-6.37h-1.14v-6.68h0.01c-0.11-0.66,1.64-2.07,3.67-2.04
			c1.86,0.02,3.59,1.24,3.43,1.88c-0.01,0.06-0.04,0.11-0.09,0.16H483.54z"/>
		<path d="M477.81,162.79c0-1.1,0.97-1.98,2.17-1.98c1.2,0,2.17,0.89,2.17,1.98c0,1.1-0.97,1.98-2.17,1.98
			C478.78,164.78,477.81,163.89,477.81,162.79z"/>
	</g>
</g>
<g>
	<g>
		<path d="M492.75,167.24v6.68h-1.09v6.37h-2.13v-6.49h-0.63v6.49h-2.14v-6.37h-1.14v-6.68h0.01c-0.11-0.66,1.64-2.07,3.67-2.04
			c1.86,0.02,3.59,1.24,3.43,1.88c-0.01,0.06-0.04,0.11-0.09,0.16H492.75z"/>
		<path d="M487.01,162.79c0-1.1,0.97-1.98,2.17-1.98c1.2,0,2.17,0.89,2.17,1.98c0,1.1-0.97,1.98-2.17,1.98
			C487.98,164.78,487.01,163.89,487.01,162.79z"/>
	</g>
</g>
<g>
	<g>
		<path d="M502.7,167.24v6.68h-1.09v6.37h-2.13v-6.49h-0.63v6.49h-2.14v-6.37h-1.14v-6.68h0.01c-0.11-0.66,1.64-2.07,3.67-2.04
			c1.86,0.02,3.59,1.24,3.43,1.88c-0.01,0.06-0.04,0.11-0.09,0.16H502.7z"/>
		<path d="M496.97,162.79c0-1.1,0.97-1.98,2.17-1.98c1.2,0,2.17,0.89,2.17,1.98c0,1.1-0.97,1.98-2.17,1.98
			C497.94,164.78,496.97,163.89,496.97,162.79z"/>
	</g>
</g>
<g>
	<g>
		<path d="M579.9,353.69v6.68h-1.09v6.37h-2.13v-6.49h-0.63v6.49h-2.14v-6.37h-1.14v-6.68h0.01c-0.11-0.66,1.64-2.07,3.67-2.04
			c1.86,0.02,3.59,1.24,3.43,1.88c-0.01,0.06-0.04,0.11-0.09,0.16H579.9z"/>
		<path d="M574.16,349.25c0-1.1,0.97-1.98,2.17-1.98c1.2,0,2.17,0.89,2.17,1.98s-0.97,1.98-2.17,1.98
			C575.14,351.23,574.16,350.34,574.16,349.25z"/>
	</g>
</g>
<g>
	<g>
		<path d="M405.77,60.06v6.68h-1.09v6.37h-2.13v-6.49h-0.63v6.49h-2.14v-6.37h-1.14v-6.68h0.01c-0.11-0.66,1.64-2.07,3.67-2.04
			c1.86,0.02,3.59,1.24,3.43,1.88c-0.01,0.06-0.04,0.11-0.09,0.16H405.77z"/>
		<path d="M400.03,55.62c0-1.1,0.97-1.98,2.17-1.98c1.2,0,2.17,0.89,2.17,1.98s-0.97,1.98-2.17,1.98
			C401.01,57.6,400.03,56.71,400.03,55.62z"/>
	</g>
</g>
<linearGradient id="SVGID_5_" gradientUnits="userSpaceOnUse" x1="595.6623" y1="722.1135" x2="852.854" y2="722.1135" gradientTransform="matrix(-0.1286 0.7534 0.8247 0.2643 146.9008 -474.3875)">
	<stop  offset="0" style="stop-color:#FFF33B"/>
	<stop  offset="0.0595" style="stop-color:#FFE029"/>
	<stop  offset="0.1303" style="stop-color:#FFD218"/>
	<stop  offset="0.2032" style="stop-color:#FEC90F"/>
	<stop  offset="0.2809" style="stop-color:#FDC70C"/>
	<stop  offset="0.6685" style="stop-color:#F3903F"/>
	<stop  offset="0.8876" style="stop-color:#ED683C"/>
	<stop  offset="1" style="stop-color:#E93E3A"/>
</linearGradient>
<path style="fill:none;stroke:url(#SVGID_5_);stroke-miterlimit:10;" d="M579.11,341.77c0.68-9.39,2.24-18.07,4.37-26.04
	c20.87-78.25,104.67-119.04,136.78-132.76"/>
</svg>
