<svg class="atom"  viewBox="0 0 100 100">
  <defs>
    <filter id="blur" x="-10" y="-10" width="120" height="120">
      <feGaussianBlur in="SourceGraphic" stdDeviation=".4" />
    </filter>
    <filter id="blur2" x="-10" y="-10" width="120" height="120">
      <feGaussianBlur in="SourceGraphic" stdDeviation="3" />
    </filter>
  </defs>

  <g class="lines">
    
    <path class="" d="M  53.75,43.5 58.2,46.21 62.41,49.03 66.24,51.88 69.57,54.67 72.31,57.32 74.38,59.74 75.7,61.87 76.24,63.64 75.98,65 74.93,65.9 73.13,66.32 70.63,66.24 67.49,65.67 63.83,64.62 59.74,63.13 55.36,61.23 50.82,59 46.25,56.5 41.8,53.79 37.59,50.97 33.76,48.13 30.43,45.33 27.69,42.68 25.63,40.26 24.3,38.13 23.76,36.36 24.02,35 25.07,34.1 26.87,33.68 29.37,33.76 32.51,34.33 36.17,35.38 40.26,36.87 44.64,38.77 49.18,41 53.75,43.5"></path>
    </g>
  <g class="electronTails"  filter="url(#blur)" >
   
    <path class="tail tail3" d="M  53.75,43.5 58.2,46.21 62.41,49.03 66.24,51.88 69.57,54.67 72.31,57.32 74.38,59.74 75.7,61.87 76.24,63.64 75.98,65 74.93,65.9 73.13,66.32 70.63,66.24 67.49,65.67 63.83,64.62 59.74,63.13 55.36,61.23 50.82,59 46.25,56.5 41.8,53.79 37.59,50.97 33.76,48.13 30.43,45.33 27.69,42.68 25.63,40.26 24.3,38.13 23.76,36.36 24.02,35 25.07,34.1 26.87,33.68 29.37,33.76 32.51,34.33 36.17,35.38 40.26,36.87 44.64,38.77 49.18,41 53.75,43.5"></path>
  </g>
  <g class="electrons">
  
    <path class="electron electron3" d="M  53.75,43.5 58.2,46.21 62.41,49.03 66.24,51.88 69.57,54.67 72.31,57.32 74.38,59.74 75.7,61.87 76.24,63.64 75.98,65 74.93,65.9 73.13,66.32 70.63,66.24 67.49,65.67 63.83,64.62 59.74,63.13 55.36,61.23 50.82,59 46.25,56.5 41.8,53.79 37.59,50.97 33.76,48.13 30.43,45.33 27.69,42.68 25.63,40.26 24.3,38.13 23.76,36.36 24.02,35 25.07,34.1 26.87,33.68 29.37,33.76 32.51,34.33 36.17,35.38 40.26,36.87 44.64,38.77 49.18,41 53.75,43.5"></path></g>
</svg>


